<svg width="73" height="32" viewBox="0 0 73 32" fill="none" xmlns="http://www.w3.org/2000/svg">
<path fill-rule="evenodd" clip-rule="evenodd" d="M69.7812 31.9248H70.109V0H68.2755V20.9303C68.7187 21.6633 69.0587 22.5153 69.3015 23.4863C69.6233 24.7518 69.7812 26.2052 69.7812 27.8528V31.9311V31.9248ZM65.7437 18.4933V0H64.7176V18.0548C64.9362 18.1237 65.1426 18.2052 65.343 18.2929C65.4766 18.3555 65.6101 18.4182 65.7437 18.4871V18.4933ZM62.9509 0H61.1173V17.6476C61.3298 17.6351 61.5545 17.6288 61.7791 17.6288C62.1859 17.6288 62.5805 17.6476 62.9509 17.6915V0ZM60.2248 17.7416V0H59.1988V17.9671C59.5266 17.8731 59.8666 17.798 60.2248 17.7416ZM58.1606 18.3618V0H54.8577V17.9107C55.6652 18.0548 56.3331 18.6061 56.6367 19.3391C57.0799 18.9695 57.5717 18.65 58.1059 18.3868L58.1606 18.3618ZM52.5142 0H50.6807V14.9413C51.2757 14.9413 51.9556 14.9977 52.5142 15.1981V0ZM53.9653 16.4385V0H52.9392V15.3923L53.0242 15.4362C53.4067 15.6429 53.7588 16.0376 53.9592 16.4323L53.9653 16.4385ZM49.9825 14.9663V0H49.1932V15.0728C49.4482 15.0102 49.7153 14.9789 49.9825 14.9601V14.9663ZM48.7439 15.2107V0H47.7178V17.8669C47.7482 17.8669 47.7785 17.8731 47.8089 17.8794V15.7807C47.8089 15.7807 47.8818 15.7118 47.9182 15.6805C48.1732 15.4675 48.4464 15.3172 48.7439 15.2107ZM44.9129 0H43.0793V17.7353C43.6865 17.8481 44.239 18.0298 44.7307 18.2803C44.7914 18.3117 44.8522 18.343 44.9129 18.3743V0ZM46.3639 18.4119V0H45.3379V18.6186C45.5139 18.7314 45.69 18.8567 45.8479 18.982C45.9693 18.7878 46.1454 18.5936 46.3578 18.4119H46.3639ZM42.375 17.6351V0H41.5858V17.5912C41.859 17.5912 42.12 17.61 42.375 17.6351ZM41.1426 17.5975V0H40.1165V17.6915C40.4504 17.6413 40.7904 17.6038 41.1426 17.5975ZM38.3497 0H36.5162V19.4518C37.0019 18.9945 37.5422 18.6186 38.1372 18.3242C38.2101 18.2866 38.2769 18.2553 38.3497 18.224V0ZM20.166 18.0611V0H18.3325V19.0384C18.6725 18.7878 19.0367 18.5623 19.4253 18.368C19.6621 18.249 19.911 18.1488 20.166 18.0548V18.0611ZM21.611 17.7103V0H20.5849V17.9233C20.9128 17.8293 21.2528 17.7604 21.611 17.704V17.7103ZM35.223 13.538V0H34.4337V12.993C34.8041 13.1433 35.0833 13.3312 35.223 13.538ZM33.9844 12.8426V0H32.9584V12.6547C33.3287 12.6922 33.6748 12.7549 33.9844 12.8363V12.8426ZM31.1977 12.7298V0H29.3641V20.711C29.3945 20.7549 29.4188 20.7987 29.4491 20.8426V13.8262C29.4491 13.3563 30.1898 12.924 31.1977 12.7298ZM28.4716 19.5834V0H27.4456V18.7502C27.8159 18.9945 28.1559 19.2702 28.4716 19.5834ZM26.4074 0H23.1046V17.61C24.3613 17.61 25.4663 17.8168 26.4074 18.2052V0ZM0.737671 31.9248H2.57122V0H0.737671V31.9248ZM3.05086 31.9248V15.5928C3.05086 14.9851 3.17229 14.5466 3.41514 14.2772C3.59121 14.0893 3.79156 13.964 4.0162 13.9076V0H2.99014V31.9248H3.05086ZM17.6282 19.6335V0H16.8389V19.0133C16.9118 19.4393 16.9482 19.8904 16.9603 20.3665C17.1668 20.1034 17.3914 19.859 17.6282 19.6273V19.6335ZM16.3957 17.4409V0H15.3696V15.8246C15.7946 16.2819 16.1346 16.8144 16.3957 17.4409ZM13.6029 14.5779V0H11.7693V14.0392C12.1518 14.1018 12.504 14.1895 12.8318 14.2897C13.105 14.3712 13.36 14.4714 13.6029 14.5779ZM10.8768 13.9264V0H9.85078V13.8763C10.209 13.8763 10.549 13.9013 10.8768 13.9264ZM8.81258 13.8763V0H5.50976V13.8763H8.81258ZM66.9762 19.3453V0H66.1869V18.7502C66.4662 18.9256 66.7273 19.1261 66.9762 19.3453ZM71.0683 31.9248H72.0943V0H71.0683V31.9248Z" fill="#2B2B2F"/>
<path d="M16.0496 27.0133C16.0496 27.5709 15.9707 28.072 15.825 28.5294C15.6793 28.9804 15.4729 29.3814 15.2118 29.7259C14.9446 30.0705 14.635 30.3712 14.2768 30.6218C13.9125 30.8724 13.5118 31.0791 13.0747 31.242C12.6375 31.4049 12.17 31.5239 11.6722 31.5991C11.1743 31.6805 10.6218 31.7118 10.0147 31.7118H5.98332C5.72833 31.7118 5.50976 31.6304 5.33369 31.4738C5.15762 31.3171 5.06655 31.0603 5.06655 30.7032V17.0525C5.06655 16.6954 5.15155 16.4385 5.33369 16.2819C5.50976 16.1253 5.72833 16.0439 5.98332 16.0439H9.78399C10.7129 16.0439 11.4961 16.1253 12.1397 16.2882C12.7832 16.4511 13.3236 16.6954 13.7668 17.0211C14.21 17.3469 14.55 17.7604 14.7807 18.2615C15.0175 18.7627 15.1329 19.3453 15.1329 20.0219C15.1329 20.4041 15.0843 20.7549 14.9932 21.0932C14.9021 21.4252 14.7625 21.7322 14.5864 22.0078C14.4043 22.2835 14.1857 22.5215 13.9247 22.7345C13.6636 22.9475 13.3661 23.1167 13.0322 23.242C13.4632 23.3234 13.8579 23.4675 14.2222 23.668C14.5864 23.8684 14.9021 24.1316 15.1693 24.4511C15.4425 24.7706 15.655 25.1464 15.8068 25.5724C15.9646 26.0047 16.0436 26.4808 16.0436 27.0133H16.0496ZM12.0668 20.4166C12.0668 20.1034 12.0183 19.8215 11.9272 19.5709C11.8361 19.3203 11.6965 19.1135 11.5083 18.9444C11.32 18.7753 11.0833 18.6562 10.7979 18.5623C10.5126 18.4745 10.1361 18.4307 9.65649 18.4307H8.10223V22.4965H9.82042C10.2636 22.4965 10.6218 22.4401 10.8829 22.3336C11.15 22.2271 11.3686 22.0767 11.5447 21.8888C11.7208 21.7009 11.8483 21.4753 11.9393 21.2247C12.0243 20.9679 12.0668 20.7048 12.0668 20.4166ZM12.8561 27.1323C12.8561 26.769 12.7954 26.4432 12.68 26.1551C12.5647 25.8731 12.3947 25.6288 12.164 25.4346C11.9393 25.2404 11.654 25.0901 11.3018 24.9836C10.9497 24.8833 10.4943 24.8269 9.92971 24.8269H8.10223V29.2874H10.3243C10.7554 29.2874 11.1136 29.2435 11.4111 29.1496C11.7025 29.0556 11.9575 28.9178 12.17 28.7361C12.3825 28.5544 12.5525 28.3289 12.674 28.0595C12.7954 27.7901 12.8561 27.4832 12.8561 27.1323Z" fill="#2B2B2F"/>
<path d="M28.9331 25.798C28.9331 26.7126 28.8177 27.5521 28.5809 28.3101C28.3441 29.0681 27.992 29.7197 27.5124 30.2647C27.0388 30.816 26.4377 31.2357 25.7213 31.5364C24.9988 31.8309 24.161 31.9812 23.2017 31.9812C22.2424 31.9812 21.4592 31.8496 20.7732 31.5803C20.0871 31.3171 19.5103 30.9287 19.061 30.4213C18.6117 29.9139 18.2718 29.2874 18.0532 28.5482C17.8346 27.8089 17.7253 26.9632 17.7253 26.011C17.7253 25.0587 17.8468 24.2506 18.0835 23.4926C18.3264 22.7283 18.6785 22.0767 19.1582 21.5317C19.6317 20.993 20.2328 20.567 20.9492 20.2662C21.6596 19.9718 22.5035 19.8215 23.4628 19.8215C24.422 19.8215 25.2174 19.953 25.9034 20.2161C26.5895 20.4792 27.1602 20.8614 27.6095 21.3751C28.0588 21.8825 28.3927 22.509 28.6113 23.2482C28.8298 23.9875 28.9391 24.8395 28.9391 25.798H28.9331ZM25.9095 25.917C25.9095 25.3845 25.867 24.8958 25.7881 24.4448C25.7031 23.9937 25.5695 23.6053 25.3692 23.2733C25.1749 22.9413 24.9138 22.6844 24.586 22.4965C24.2581 22.3085 23.8513 22.2208 23.3535 22.2208C22.9163 22.2208 22.5278 22.3023 22.1999 22.4714C21.8721 22.6343 21.5989 22.8786 21.3864 23.1981C21.1739 23.5176 21.016 23.8998 20.9128 24.3446C20.8035 24.7956 20.7549 25.3031 20.7549 25.8794C20.7549 26.4119 20.7974 26.9005 20.8824 27.3516C20.9674 27.8027 21.1131 28.1911 21.3014 28.5231C21.4956 28.8551 21.7506 29.112 22.0846 29.2937C22.4124 29.4753 22.8192 29.5693 23.311 29.5693C23.7603 29.5693 24.1488 29.4879 24.4767 29.3187C24.8045 29.1558 25.0777 28.9115 25.2902 28.5983C25.5027 28.2788 25.6606 27.9029 25.7638 27.4518C25.861 27.0008 25.9156 26.4933 25.9156 25.917H25.9095Z" fill="#2B2B2F"/>
<path d="M34.2333 31.3046C34.2333 31.3861 34.2091 31.455 34.1605 31.5176C34.118 31.5803 34.0391 31.6304 33.9176 31.668C33.8084 31.7056 33.6566 31.7369 33.4684 31.7619C33.2801 31.7807 33.0373 31.7933 32.7519 31.7933C32.4666 31.7933 32.2237 31.787 32.0355 31.7619C31.8534 31.7431 31.7016 31.7056 31.5862 31.668C31.4709 31.6241 31.392 31.5803 31.3434 31.5176C31.2948 31.455 31.2705 31.3861 31.2705 31.3046V15.3861C31.2705 15.3046 31.2948 15.2357 31.3434 15.1668C31.3859 15.1041 31.4648 15.0478 31.5862 15.0039C31.6955 14.9601 31.8534 14.9225 32.0355 14.9037C32.2237 14.8786 32.4666 14.8661 32.7519 14.8661C33.0373 14.8661 33.2801 14.8786 33.4684 14.9037C33.6505 14.9287 33.8023 14.9601 33.9176 15.0039C34.033 15.0478 34.1119 15.1041 34.1605 15.1668C34.2091 15.2357 34.2333 15.3046 34.2333 15.3861V31.3046Z" fill="#2B2B2F"/>
<path d="M46.8314 25.5912C46.8314 25.9608 46.7525 26.2365 46.5886 26.4119C46.4307 26.5873 46.2061 26.6813 45.9268 26.6813H39.5579C39.5579 27.1386 39.6126 27.5521 39.7158 27.928C39.819 28.2976 39.989 28.6171 40.2136 28.8802C40.4444 29.1433 40.7418 29.3375 41.1061 29.4753C41.4704 29.6132 41.9015 29.6821 42.4115 29.6821C42.9215 29.6821 43.3829 29.6445 43.7715 29.5693C44.16 29.4879 44.5 29.4064 44.7854 29.3124C45.0707 29.2185 45.3075 29.137 45.4957 29.0556C45.6839 28.9742 45.8357 28.9428 45.9511 28.9428C46.0239 28.9428 46.0846 28.9554 46.1271 28.9867C46.1757 29.018 46.2182 29.0681 46.2486 29.137C46.2789 29.2059 46.3032 29.3124 46.3154 29.444C46.3275 29.5756 46.3336 29.7447 46.3336 29.9452C46.3336 30.1206 46.3336 30.2772 46.3214 30.4025C46.3154 30.5278 46.3032 30.6343 46.285 30.722C46.2668 30.816 46.2486 30.8849 46.2182 30.9475C46.1879 31.0102 46.1454 31.0666 46.0968 31.1229C46.0421 31.1793 45.9086 31.2545 45.6779 31.3547C45.4471 31.455 45.1618 31.5489 44.8097 31.6429C44.4575 31.7369 44.0568 31.8183 43.6075 31.8935C43.1582 31.9624 42.6725 32 42.1565 32C41.2215 32 40.414 31.881 39.7097 31.6366C39.0115 31.3986 38.4287 31.029 37.9551 30.5403C37.4876 30.0517 37.1415 29.4252 36.9048 28.6797C36.674 27.928 36.5587 27.0509 36.5587 26.0423C36.5587 25.0337 36.6801 24.2193 36.923 23.4487C37.1658 22.6782 37.518 22.0266 37.9794 21.4941C38.4408 20.9554 38.9994 20.5482 39.6611 20.2662C40.3229 19.9843 41.0697 19.8402 41.8954 19.8402C42.7697 19.8402 43.5225 19.9718 44.1418 20.2412C44.7672 20.5043 45.2772 20.8802 45.6718 21.35C46.0664 21.8199 46.3639 22.3837 46.5521 23.029C46.7403 23.6742 46.8314 24.3759 46.8314 25.1339V25.6163V25.5912ZM43.9718 24.7267C43.9961 23.8747 43.8261 23.1981 43.474 22.7095C43.1157 22.2208 42.5693 21.9765 41.8226 21.9765C41.4461 21.9765 41.1183 22.0517 40.8451 22.1958C40.5658 22.3399 40.3351 22.5341 40.1469 22.7846C39.9647 23.0352 39.8251 23.3234 39.7279 23.6554C39.6308 23.9937 39.5701 24.3508 39.5579 24.7267H43.9779H43.9718Z" fill="#2B2B2F"/>
<path d="M55.2949 30.2459C55.2949 30.603 55.2767 30.8724 55.2281 31.0666C55.1856 31.2545 55.131 31.3861 55.0581 31.4612C54.9913 31.5427 54.8881 31.6116 54.7485 31.668C54.6088 31.7306 54.451 31.7807 54.2628 31.8246C54.0806 31.8684 53.8803 31.906 53.6678 31.9248C53.4492 31.9499 53.2367 31.9624 53.0181 31.9624C52.4353 31.9624 51.9253 31.881 51.4942 31.7306C51.0632 31.5803 50.711 31.3422 50.4257 31.0227C50.1464 30.7032 49.94 30.3023 49.8064 29.8199C49.6728 29.3375 49.606 28.7612 49.606 28.1034V22.5717H48.3371C48.1914 22.5717 48.07 22.4777 47.9971 22.2897C47.9182 22.1018 47.8757 21.7823 47.8757 21.3375C47.8757 21.0995 47.8818 20.9052 47.9061 20.7424C47.9243 20.5795 47.9607 20.4542 47.9971 20.3602C48.0336 20.2662 48.0882 20.2036 48.1428 20.1597C48.1975 20.1159 48.2703 20.0971 48.3493 20.0971H49.606V17.6789C49.606 17.6038 49.6242 17.5286 49.6728 17.4597C49.7153 17.397 49.7942 17.3469 49.9096 17.2968C50.0189 17.2529 50.1767 17.2153 50.371 17.1966C50.5653 17.1778 50.8021 17.1652 51.0814 17.1652C51.3606 17.1652 51.6096 17.1715 51.8039 17.1966C51.9981 17.2153 52.1499 17.2529 52.2592 17.2968C52.3685 17.3406 52.4474 17.397 52.4899 17.4597C52.5385 17.5286 52.5628 17.5975 52.5628 17.6789V20.0971H54.8335C54.9124 20.0971 54.9792 20.1159 55.0399 20.1597C55.1006 20.2036 55.1492 20.2662 55.1856 20.3602C55.2281 20.4542 55.2524 20.5857 55.2706 20.7424C55.2888 20.9052 55.301 21.0995 55.301 21.3375C55.301 21.7823 55.2585 22.1018 55.1856 22.2897C55.1067 22.4777 54.9913 22.5717 54.8456 22.5717H52.5628V27.6398C52.5628 28.2287 52.6478 28.6735 52.8299 28.9679C53.0121 29.2623 53.3278 29.4127 53.7892 29.4127C53.9471 29.4127 54.0867 29.4002 54.2081 29.3688C54.3295 29.3375 54.4449 29.3062 54.542 29.2686C54.6392 29.2373 54.7242 29.1997 54.791 29.1746C54.8578 29.1433 54.9185 29.1308 54.9731 29.1308C55.0217 29.1308 55.0642 29.1433 55.1067 29.1746C55.1492 29.2059 55.1856 29.2561 55.2038 29.3438C55.222 29.4252 55.2463 29.5442 55.2706 29.6883C55.2888 29.8387 55.301 30.0204 55.301 30.2459H55.2949Z" fill="#2B2B2F"/>
<path d="M67.7533 25.798C67.7533 26.7126 67.638 27.5521 67.4012 28.3101C67.1644 29.0681 66.8123 29.7197 66.3326 30.2647C65.8591 30.816 65.258 31.2357 64.5416 31.5364C63.8191 31.8309 62.9812 31.9812 62.022 31.9812C61.0627 31.9812 60.2795 31.8496 59.5934 31.5803C58.9074 31.3171 58.3306 30.9287 57.8813 30.4213C57.432 29.9139 57.092 29.2874 56.8734 28.5482C56.6549 27.8089 56.5456 26.9632 56.5456 26.011C56.5456 25.0587 56.667 24.2506 56.9038 23.4926C57.1467 22.7283 57.4988 22.0767 57.9784 21.5317C58.452 20.993 59.0531 20.567 59.7695 20.2662C60.4798 19.9718 61.3238 19.8215 62.283 19.8215C63.2423 19.8215 64.0376 19.953 64.7237 20.2161C65.4098 20.4792 65.9805 20.8614 66.4298 21.3751C66.879 21.8825 67.213 22.509 67.4315 23.2482C67.6501 23.9875 67.7594 24.8395 67.7594 25.798H67.7533ZM64.7298 25.917C64.7298 25.3845 64.6873 24.8958 64.6084 24.4448C64.5234 23.9937 64.3898 23.6053 64.1894 23.2733C63.9952 22.9413 63.7341 22.6844 63.4062 22.4965C63.0784 22.3085 62.6716 22.2208 62.1737 22.2208C61.7366 22.2208 61.348 22.3023 61.0202 22.4714C60.6923 22.6343 60.4191 22.8786 60.2066 23.1981C59.9941 23.5176 59.8363 23.8998 59.7331 24.3446C59.6238 24.7956 59.5752 25.3031 59.5752 25.8794C59.5752 26.4119 59.6177 26.9005 59.7027 27.3516C59.7877 27.8027 59.9334 28.1911 60.1216 28.5231C60.3159 28.8551 60.5709 29.112 60.9048 29.2937C61.2327 29.4753 61.6395 29.5693 62.1312 29.5693C62.5805 29.5693 62.9691 29.4879 63.2969 29.3187C63.6248 29.1558 63.898 28.9115 64.1105 28.5983C64.323 28.2788 64.4809 27.9029 64.5841 27.4518C64.6812 27.0008 64.7359 26.4933 64.7359 25.917H64.7298Z" fill="#2B2B2F"/>
</svg>
